<?xml version="1.0" encoding="UTF-8"?>
<svg id="Layer_1" data-name="Layer 1" xmlns="http://www.w3.org/2000/svg" viewBox="0 0 1600 1151.41">
  <defs>
    <style>
      .cls-1 {
        fill-rule: evenodd;
      }

      .cls-1, .cls-2 {
        fill: #7AA33A;
      }

      .cls-2 {
        font-size: 240px;
      }
    </style>
  </defs>
  <path class="cls-1" d="M311.53,276.83c27.48,13.11,43.49,5.51,70.47,29.37,25.19,22.28,21.27,37.19,41.89,61.76,22.74-30.8,39.98-63,64.25-93.87,24.63-31.33,50.43-57.29,77.8-81.27,52.27-45.8,123.49-89.04,211.45-105.83,259.34-49.53,431.53,126.65,478.22,144C1179.72,91.5,946.91-10.17,762.84.81c-141.62,8.45-277.14,78.2-367.97,173.5-30.76,32.27-65.47,64.51-83.34,102.52Z"/>
  <path class="cls-1" d="M367.76,941.49c59.83,103.79,263.82,205.91,414.28,209.71,178.87,4.52,315.29-65.13,427.4-183.72-35.97,4.05-199.15,125.79-387.32,109.22-105.61-9.3-184.23-56.07-259.97-116.05-26.82-21.23-47.2-44.86-71.26-63.27-42.15,16-74.18,36.22-123.13,44.12Z"/>
  <g>
    <g>
      <path class="cls-1" d="M343.87,465.5l-25.54.8c-1.59-22.44-11.73-55.59-26.55-63.27-29.24-15.15-63.68,7.18-66.6,14.31-4.29,10.45,14.89,33.28,22.66,39.89,7.04,5.99,7.96,3.95,12.35,12.83-13.06.75-27.44.78-40.45-.39-20.45-1.84-11.96-1.41-27.56,4.3-2.08-28.25.64-29-16.74-43.72-24.92-21.09-15.67-11.24-49.87-13.24-26.97-1.58-32.08,9.54-51.77,2.64-18.14-6.36-32.06-8.23-45.28,2.92-6.33,33.57,3.01,88.13,2.89,122.87-.19,59.24,7.82,178.76-16.86,228.81-6.6,13.39-18.22,29.44-13.42,42.05,9.56,25.07,15.02,21.86,40.74,18.23,5.19,4.11,11.83,22.58,25.24.05,28.17-47.34,22.7-95.08,26.13-151.62l28.71-3.13c2.59,42.54,1.16,100.99-3.23,144.48-1.2,11.94-2.32,11.93,2.12,21.57,2.83,6.14,5.89,13.3,10.23,15.91,6.76,4.07,12.78.67,18.47.35,7.27-.41,48.79,18.74,38.5-23.09-3.98-16.19-2.37-78.47-.57-98.34l165.66-9.1c42.01,1.45,137.04,3.33,162.46-12.92,5.91-53.15-40.41-26.44-101.28-33.3,5.47-7.57-1.44-.27,5.04-4.95,11.28-8.16,54.37-20.82,27.65-40.33l-13.49-8.26c.63-.49,1.72-1.73,2.11-1.09.44.69,2.55-1.27,4.26-1.87,29-10.3,34.06-17.06,23.68-39.12-36.06-9.85-67.98.87-100.88-4.08-5.04-22.33,19.12-12.82,63.77-17.32,28.86-2.91,43.65-20.28,23.74-40.68-30.97-4.95-62.63,2.56-90.63-1.63-8.69-38.5,57.28,3.99,118.78-32.88-.28-33.1-28.91-32.78-58.63-29.83,1.78-12.54,25.97-24.78,18.83-41.89-2.32-5.56-10.68-9.98-16.54-15.38-6.91-6.37-9.47-10.4-21.66-10.91-28.11-1.17-27.56,4.23-39.45,24.71-16.12,27.78-16.72,7.76-17.04,45.64h0ZM291.09,658.01c-9.92-8.5-41.47-17.88-43.35-21.94l51.46-2.72c2.66,13.1-1.33,17.31.54,31.26,1.47,11.01,5.79,18.78,2.21,28.72l-21.12.16c11.34-8.35,12.09-18.61,10.27-35.49h0ZM373.78,683.74c-35.51,3.88-10.14-52.16-10.13-52.18,17.68-2.99,26.75.04,42.53,1.95-3.4,4.91.65,1.18-5.72,6.36-2.26,1.84-4.1,2.53-6.68,3.87-29.53,15.33-16.26,15.74-20,40.01h0ZM187.1,698.81c-1.07-17.06-3.41-24.88-2.2-42.31.67-9.62-1.4-25.22-.38-39.36,8.26,1.35,23.65,13.2,29.08,19.94-3.69,4.9-23.34,18.55-10.64,35.02,8.45,10.97,27.4,12.77,38.91,19.91l-54.77,6.79h0ZM188.04,608.17l-.78-94.86c8.85,3.86,15.88,11.58,27.46,12.13,12.62.6,16.7-6.36,28.86-7.89,9.64-1.21,26.4-1.29,36.59-1.49,16.88-.33,19.59-1.72,17.4,15.86-27.22,15.64-54.97-13.44-73.3,24.07l9.8,17.2c11.58,18.02,37.27.89,63.15,7.4.57,13.87-9.16,13.33-22.38,13.36-98.22.28-46.02,1.37-86.8,14.22h0ZM93.74,616.35c-3.12-8.01-6.81-38.83,13.49-37.6,13.13.79,10.7,5.79,12.06,17.83l-.18,18.42c-.14.51-.86,2.32-.98,1.95-.12-.37-.63,1.33-1.11,1.88-3.25,2.58-15.04,5.64-23.29-2.47h0ZM95.93,522.98c-7-12.43-6.4-36.83-3.33-53.08l22.57,4.99c2.38,9.85,1.58,38.79-1.19,49.04l-18.06-.95Z"/>
      <path class="cls-1" d="M348.87,738.9c-29.06,2.88-66.19-.02-94.06,3.85-40.2,5.59-50.52,3.47-50.69,48.65-.25,68.47,19.71,68.58,78.5,68.57,16,0,22.59-5.2,44.38-4.89,32.45.46,63.31,1.35,94.31,1.4,17.25.02,26.04-3.91,35.85-13.39,17.88-17.28,24.29-88.45-18.18-100.96-26.22-7.73-61.69-6.03-90.1-3.22h0ZM393.32,807.93c-14.05,2.13-103.66,4.6-118.47,1.39-13.04-2.83-9.37-23.6-3.99-26.73.56-.33,71-4.42,76.99-4.45,29.96-.16,56.02-9.89,45.47,29.79Z"/>
    </g>
    <g>
      <path class="cls-1" d="M721.03,391.6c2.39,24.34,12.15,14.08,14.5,31.39,2.02,14.89,1.63,27.74,4.17,43.85,10.26,64.94.67,127.08,1.46,186.39.49,36.61-.59,54.94-13.06,83.97-37.18,3.81-14.1,8.23-39.16,11.15-17.72,2.07-29.61-4.85-44.95,4.01-21.63,12.5-7.13,13.91-16.42,33.28-3.33,6.95-5.14,7.26-8.71,14.67-3.37,6.98-6.74,12.86-4.3,19.03,13.94,5.21,121.4,4.26,125.82,3.17l37.83-14.47c11.66-5.26,11.1-1.67,21.23-5.26,36.73-13.01,35.78-85.7,37.38-118.27.63-12.8,2.83-12.67,3.95-23.51.9-8.7-.79-19.37-.92-28.82-.24-16.52-3.99-32.34-4.03-47.01-.05-17.86,3.22-27.08,1.07-48.3-2.05-20.14-.74-79.53,10.43-93.8,13.42-17.15,6.31-25.22-5.92-34-8.87-6.38-21.39-15.64-33.58-18.59-13.2-3.19-34.01-6.51-48.43-4.65-24.24,3.13-20.13-6.24-38.36,5.78Z"/>
      <path class="cls-1" d="M868.48,511.94c1.75,14.81,16.25,46.61,22.25,57.02,6.17,10.71,3.04,11.71,6.33,22.68,3.38,11.28,33.05,55.41,41.34,68.24l33.6,47.53c32.75,47.5,105.25-29.9,92.15-63.22-3.19-8.12-50.97-29.55-79.88-85.03-14.76-28.32-.91-16.93-18.18-36.83-7.85-9.05-3.5-7.65-8.58-17.14-19.55-36.51-34.2-20.31-52.08-12.13-11.51,5.26-9.62-.89-20.31,5.82-.01,0-15.96,12.46-16.63,13.06Z"/>
      <path class="cls-1" d="M616.08,491.3c-22.06,13.43.4,14.21-1.8,35.13-3.46,32.93-31.01,82.75-46.3,110.65-15.19,27.7-17.16,19.62-20.14,31.98-11.37,47.12,18.42,56.1,23.97,61.76,3.96,4.03,1.09,3.78,6.5,6.69,19.46,10.45,36.52-19,41.05-22.84,8.61-7.3.4-.07,8.38-4.77,5.46-3.21,3.14-.77,6.85-6.21l4.92-8.14c9.79-11.95,14.23-18.64,22.75-29.6,17.06-21.93,62.16-132.77,33.87-153.44l-36.71-15.54c-11.61-5.87-26.25-16.05-43.33-5.66Z"/>
    </g>
    <g>
      <path class="cls-1" d="M1254.44,654.92c0-28.55,1.29-51.38,2.72-77.82,4.7-36.26,3.79-1.2,4.99-49.74,34.8-4.79,85.82-14.55,120.49-10.33,5.42,10.04,10.46,27,9.71,38.78l-3.86,42.23c-2.49,20.32-7.25-1.68-1.92,16.94,6.23,21.76-4.83,7.91,1.1,67.02,3.35,33.46-.5,26.91,12.46,58.01,2.55,6.11,14.25,28.37,20.09,32.31l15.21,11c8.48,7.71,26.51,8.91,35.49,16.16-14.12,4.9-8.75-3.26-12.22,7.95,10.66,4.87,6.05,1.19,13.77,1.8,14.16,1.12-2.82,7.24,54.05,7.51,18.78.09,71.99-.94,73.22-17.48.57-7.78.18-2.16-.98-8.68-1.19-6.68-1.35-10.15-2.25-17.06-1.14-8.79-2.33-8.23-3.33-14.21-1.25-7.5.11-11.44-1.2-20.35-16.76-10.77-39.33-7.73-62.23-10.77-39.66-5.26-21.08,7.67-46.69-21.28-19.02-21.51-10.56-31.27-11.69-61.38-.81-21.62-1.04-46.06-1.58-68.41-.71-29.68,26.16-102.94,4.9-123.46-13.01-12.55-45.1-8.98-58.2-15.12-22.89-10.73-7.88-.16-24.02-2.81-10.95-1.8,2.95-3.05-13.17-.75-6.9.99-12.14.94-19.23,2.12-8.59,11.31-2.13,12.81-17.55,12.99-12.27.14-16.11,1.65-27.85,4.26-21.62,4.81-41.17,2.32-62.88,4.74-14.93,1.67-14.78,6.56-28.85.46-12.88-5.58-7.24-10.65-22.42-9.25-28.28,2.62-15.59,19.67-31.94,37.89,3.84,9.1,9.19,5.83,7.14,36.61-2.39,35.96.32,58.8-.22,86.42-.35,18.42-5.78,25.46-5.32,41.77.94,33.1-14.23,43.37-27.56,63.52-7.34,11.09-8.41,18.29-20.87,26.38-9.46,6.14-13.96,14.12-24.69,22.61l1.23,24.79c-.57,5.18-.34,10.11-.94,14.15-1.59,10.61-11.54,19.92,9.86,32.69,8.03,4.79,13.33,8.54,25.71,5.93,19.17-4.04,33.89-11.15,51.08-17.44,23.71-8.68,29.95-9.14,30.84-39.18,15.16-8.84,2.87,1.66,19.72-25.07,4.85-7.68,9.14-21.83,11.65-33.31,16.48-75.3-13.85-59.51,8.22-73.1Z"/>
      <path class="cls-1" d="M1254.44,654.92l-1.37-40.73c26,8.81,31.55,68.2,34.68,73.09,10.79,16.86,53.72,10.68,69.68,8.38,4.96-6.91,15.96-34.45,13.74-44.2-1.09-4.75-17.51-35.4-20.52-39.71-14.46-20.73-60.66-28.08-94.26-25.26l.78-9.39c-1.43,26.44-2.72,49.27-2.72,77.82Z"/>
    </g>
  </g>
  <text class="cls-2" transform="translate(1337.6 204.04)"><tspan x="0" y="0">®</tspan></text>
</svg>
