<?xml version="1.0" encoding="UTF-8"?>
<svg id="Layer_1" data-name="Layer 1" xmlns="http://www.w3.org/2000/svg" viewBox="0 0 1600 396.77">
  <defs>
    <style>
      .cls-1 {
        fill: #7AA33A;
      }
    </style>
  </defs>
  <path class="cls-1" d="M131.96,11.27l-2.28,12.96h74.45l-9.14,51.84h-74.45l-2.72,15.45c-2.29,12.96-7.31,22.27-15.07,27.91-7.77,5.66-19.24,8.47-34.41,8.47H31.41l8.88-50.34h1.84c10.25,0,16.14-4.31,17.67-12.96l9.4-53.33h62.76Z"/>
  <path class="cls-1" d="M152.25,83.89c8.39,0,15.07,2.36,20.07,7.08,4.99,4.72,6.89,10.47,5.69,17.27-1.2,6.8-5.13,12.55-11.78,17.27-6.66,4.72-14.18,7.08-22.57,7.08-7.93,0-14.39-2.35-19.37-7.08-5-4.72-6.89-10.48-5.69-17.27,1.2-6.8,5.12-12.54,11.78-17.27,6.65-4.72,13.94-7.08,21.87-7.08Z"/>
  <path class="cls-1" d="M295.62,11.27l-2.28,12.96h74.45l-9.14,51.84h-74.45l-2.72,15.45c-2.29,12.96-7.31,22.27-15.07,27.91-7.76,5.66-19.24,8.47-34.41,8.47h-36.91l8.88-50.34h1.84c10.25,0,16.14-4.31,17.67-12.96l9.4-53.33h62.76Z"/>
  <path class="cls-1" d="M319.56,83.89c8.39,0,15.07,2.36,20.07,7.08,4.99,4.72,6.89,10.47,5.69,17.27-1.2,6.8-5.13,12.55-11.78,17.27-6.66,4.72-14.18,7.08-22.57,7.08-7.93,0-14.39-2.35-19.37-7.08-5-4.72-6.89-10.48-5.69-17.27,1.2-6.8,5.11-12.54,11.78-17.27,6.65-4.72,13.94-7.08,21.87-7.08Z"/>
  <path class="cls-1" d="M711.58,387.55c-10.26,0-18.48-.5-24.65-1.49-6.19-1-10.86-2.99-14.02-5.98-3.16-2.99-4.89-7.15-5.19-12.46-.29-5.31.32-12.29,1.84-20.93l18.72-106.17h67.07l-11.69,66.29c-1.35,7.65-.93,12.8,1.27,15.45,2.19,2.66,8.01,3.99,17.45,3.99l-10.81,61.31h-39.99Z"/>
  <path class="cls-1" d="M909.72,393.87h-54.76l44.47-252.21c-3.52,1.33-6.86,2.24-10.02,2.74-3.16.5-5.81.92-7.91,1.25-2.52.34-5.01.5-7.47.5l11.95-67.79c10.71-2.66,18.5-7.81,23.33-15.45,4.83-7.64,8.77-20.1,11.82-37.38l3.95-22.43h53.53l-68.9,390.77ZM961.4,208.95l8.61-48.84h81.21l-8.61,48.84h.62l-34.81,113.64c23.02,11.3,55.87,16.95,98.53,16.95h58.45l-9.58,54.33h-76.91c-35.28,0-64.25-5.48-86.93-16.45l-4.66,15.95h-60.91l18.9-61.81c-7.39-16.28-10.55-35.55-9.49-57.82h27.69l20.65-64.8h-22.76ZM988.99,59.42l8.61-48.85h79.99l-8.61,48.85h-1.23l-38.58,100.18h-59.06l38.58-100.18h-19.69ZM1178.58,3.1l-3.52,19.94h21.54c5.74,0,9.5,1.33,11.29,3.99,1.78,2.66,2.36,5.82,1.72,9.47l-7.82,44.36h12.92l-7.56,42.87h-12.92l-8.44,47.85c-.53,2.99-2.26,5.82-5.19,8.48-2.93,2.66-7.07,3.99-12.39,3.99h-20.92l-3.08,17.45h31.99l-6.94,39.37h-31.99l-3.52,19.94h31.99l-6.86,38.88h-31.99l-5.27,29.91h-62.14l5.27-29.91h-30.15l6.86-38.88h30.15l3.52-19.94h-30.15l6.94-39.37h30.15l3.08-17.45h-30.15l7.47-42.37h34.46l3.16-17.94h-34.46l7.56-42.87h34.46l2.64-14.95h-34.46l7.56-42.87h29.53l3.52-19.94h62.14ZM1160.74,65.9l-2.64,14.95h16.61l2.64-14.95h-16.61ZM1164,141.66l3.16-17.94h-16.61l-3.16,17.94h16.61Z"/>
  <path class="cls-1" d="M1591.65,70.89h-233.8l-47.99,272.14c-3.28,18.61-9.27,31.65-17.98,39.13-8.7,7.48-21.88,11.22-39.51,11.22h-31.38l11.6-65.79c4.1,0,7.15-1,9.14-2.99,1.99-1.99,3.57-6.31,4.75-12.96l50.8-288.1h302.72l-8.35,47.35Z"/>
  <polygon class="cls-1" points="1331.39 255.81 1389.84 255.81 1386.07 319.11 1328.23 319.11 1331.39 255.81"/>
  <polygon class="cls-1" points="1326.21 330.57 1384.04 330.57 1365.59 393.37 1307.13 393.37 1326.21 330.57"/>
  <path class="cls-1" d="M1579.08,142.16l6.24-35.39c.82-4.65-.73-8.64-4.66-11.96-3.93-3.32-8.76-4.98-14.5-4.98h-60.3l1.67-9.47h-72.6l-1.67,9.47h-70.75l-6.5,36.88h70.75l-2.72,15.45h-70.75l-7.91,44.86h70.75l-2.72,15.45h-70.75l-6.86,38.88h70.75l-26.81,152.02h72.6l26.81-152.02h60.3c5.74,0,11.17-1.75,16.31-5.23,5.12-3.49,8.1-7.55,8.92-12.21l6.5-36.88h10.46l7.91-44.86h-10.46ZM1519.23,202.47h-33.23l2.72-15.45h33.23l-2.72,15.45ZM1529.86,142.16h-33.23l2.72-15.45h33.23l-2.72,15.45Z"/>
  <polygon class="cls-1" points="1536.81 319.11 1475.89 319.11 1495.06 255.81 1555.35 255.81 1536.81 319.11"/>
  <polygon class="cls-1" points="1531.1 393.37 1470.8 393.37 1473.87 330.57 1534.78 330.57 1531.1 393.37"/>
  <path class="cls-1" d="M694.93,75.01c-50.67,0-85.96-33.65-78.67-75.01h49.48c-3.4,19.26,12.87,34.92,36.26,34.92s45.17-15.67,48.57-34.92h49.48c-7.29,41.36-54.45,75.01-105.12,75.01Z"/>
  <polygon class="cls-1" points="452.85 297.5 412.54 297.5 449.92 85.5 490.23 85.5 452.85 297.5"/>
  <path class="cls-1" d="M779.54,245.49h-222.69l28.75-163.04h222.69l-28.75,163.04ZM616.17,198.73h113.88l12.26-69.51h-113.88l-12.26,69.51Z"/>
  <path class="cls-1" d="M483.91,396.77h-30.93L519.71,18.34h48.56l-57.11,323.89c36.95-10.43,71.84-22.32,85.99-70.48l5.98-33.93h61.85l-5.98,33.93c-12.16,68.94-90.7,125.02-175.1,125.02Z"/>
  <path class="cls-1" d="M278.61,319.91c13.45,0,24.34,3.27,32.64,9.8,8.31,6.53,11.64,14.45,10.01,23.74-1.64,9.3-7.75,17.14-18.34,23.52-10.59,6.39-22.61,9.58-36.06,9.58s-24.45-3.2-33-9.58c-8.55-6.39-12-14.23-10.36-23.52.82-4.64,2.85-9,6.09-13.07,3.24-4.06,7.34-7.62,12.29-10.67,4.95-3.05,10.63-5.45,17.03-7.19,6.4-1.74,12.97-2.61,19.69-2.61Z"/>
  <path class="cls-1" d="M190.19,226.33c-74.34,0-126.45-34.71-118.64-79.02h61.21c-2.59,14.68,25.03,31.11,65.87,31.11s74.25-16.42,76.84-31.11h61.21c-7.81,44.31-72.16,79.02-146.5,79.02Z"/>
  <path class="cls-1" d="M222.51,241.06H25.73l-8.06,45.74h105.33c-9.02,15.4-22.38,26.14-40.06,32.24-17.69,6.1-41.98,9.73-72.87,10.89L0,387c30.27,0,57.29-1.82,81.06-5.45,23.76-3.63,44.44-9.44,62.04-17.43,17.59-7.98,32.25-18.36,43.96-31.15,11.71-12.78,20.42-28.17,26.12-46.18h119.83l8.06-45.74h-118.57Z"/>
  <polygon class="cls-1" points="1506.91 40.22 1425.46 40.22 1432.14 2.37 1513.58 2.37 1506.91 40.22"/>
  <polygon class="cls-1" points="568.16 127.57 449.33 127.57 452.65 85.5 574.8 85.5 568.16 127.57"/>
</svg>
